<?xml version="1.0" encoding="utf-8"?>
<!-- Generator: Adobe Illustrator 21.1.0, SVG Export Plug-In . SVG Version: 6.00 Build 0)  -->
<!DOCTYPE svg PUBLIC "-//W3C//DTD SVG 1.1//EN" "http://www.w3.org/Graphics/SVG/1.1/DTD/svg11.dtd">
<svg version="1.1" id="Calque_1" xmlns="http://www.w3.org/2000/svg" xmlns:xlink="http://www.w3.org/1999/xlink" x="0px" y="0px"
	 viewBox="0 0 583.5 42" style="enable-background:new 0 0 583.5 42;" xml:space="preserve">
<style type="text/css">
	.st0{fill:none;stroke:#53D8FB;stroke-width:1.8;stroke-miterlimit:10;}
</style>
<line class="st0" x1="472.1" y1="29.7" x2="573.1" y2="29.7"/>
<circle class="st0" cx="576.6" cy="29.7" r="3.5"/>
<line class="st0" x1="110.1" y1="29.7" x2="9.1" y2="29.7"/>
<circle class="st0" cx="5.5" cy="29.7" r="3.5"/>
<path class="st0" d="M110.1,29.7c18.1,0,18.1-20,36.2-20s18.1,20,36.2,20c18.1,0,18.1-20,36.2-20c18.1,0,18.1,20,36.2,20
	c18.1,0,18.1-20,36.2-20s18.1,20,36.2,20c18.1,0,18.1-20,36.2-20c18.1,0,18.1,20,36.2,20c18.1,0,18.1-20,36.2-20s18.1,20,36.2,20"/>
</svg>
